# xmcd
# Copyright (C) 1995-1998 Ti Kan
#
# Track frame offsets:
#       150
#       50352
#       94779
#       132219
#       154249
#       172133
#       199799
#       256344
#       311481
#
# Disc length: 4812 seconds
#
# Revision: 0
# Processed by: cddbd v1.5.2PL0 Copyright (c) Steve Scherf et al.
# Submitted via: CD-Transfer v1.0
#
DISCID=7812ca09
DTITLE=Nadia Benyoucef - 
DYEAR=1900
DGENRE=
TTITLE0=*ma Nekbalche Ghir Hbibi
TTITLE1=*ya Lkhatem
TTITLE2=*ya Lwarda
TTITLE3=*aamart Dari Ya Lahbeb
TTITLE4=*fetlate Ezzine
TTITLE5=*ana We Aaoudi
TTITLE6=*yel Mouhami
TTITLE7=*el Moukhadirates
TTITLE8=*farakouni
EXTD=
EXTT0=
EXTT1=
EXTT2=
EXTT3=
EXTT4=
EXTT5=
EXTT6=
EXTT7=
EXTT8=
PLAYORDER=
